<svg id="Layer_1" data-name="Layer 1" xmlns="http://www.w3.org/2000/svg" viewBox="0 0 512.71 128.73"><defs><style>.cls-1{fill:#221f1f;}.cls-2{fill:#fff;}.cls-3{fill:#1ebce5;}.cls-4{fill:#414141;}.cls-5{fill:#ea4424;}</style></defs><rect class="cls-1" x="43.93" y="75.74" width="2.22" height="0.78"/><path class="cls-1" d="M65,20.25H44.63s-5.38.4-5.38,5.21V75.79c0,4.81,5.38,5.21,5.38,5.21H65s5.38-.4,5.38-5.21V25.46C70.34,20.65,65,20.25,65,20.25ZM52.21,21.8H57.4s.68,0,.68.56-.68.57-.68.57H52.21s-.68,0-.68-.57S52.21,21.8,52.21,21.8Zm-5.9,54.87H43.77V75.58h2.54Zm.28,0h-.17V75.46H43.77v-.15h2.82Zm10.89.11H52.11s-.71,0-.71-.68.71-.68.71-.68h5.37s.71,0,.71.68S57.48,76.78,57.48,76.78Zm7.26-.44a.37.37,0,0,1-.33.3.85.85,0,0,1-.23,0h-.86v-.18h.86l.2,0a.26.26,0,0,0,.2-.19.47.47,0,0,0,0-.31.21.21,0,0,0-.17-.16.91.91,0,0,0-.23,0h-.69v.28L63,75.68l.53-.37v.29h.71a1.15,1.15,0,0,1,.26,0,.42.42,0,0,1,.28.27A.66.66,0,0,1,64.74,76.34Zm3.62-5.11H41.23V24.91H68.36Z"/><rect class="cls-2" x="41.23" y="24.91" width="27.13" height="46.32"/><path class="cls-1" d="M57.39,75.54H52.2s-.68,0-.68.56.68.57.68.57h5.19s.68,0,.68-.57-.68-.56-.68-.56Z"/><path class="cls-1" d="M52.31,22.82h5s.66,0,.66-.45-.66-.46-.66-.46h-5s-.66,0-.66.46.66.45.66.45Z"/><path class="cls-3" d="M105.94,54.77c-2.33,3.57-6,5.19-10.26,5.2L82.83,60h0c0-5.18,0-10.35,0-15.53a2.89,2.89,0,0,0-2.84-2.84c-1.45,0-2.91,0-4.37,0a2.7,2.7,0,0,0-2.78,2.64,2.73,2.73,0,0,0,2.77,2.68H77v.81c0,4.09,0,8.18,0,12.27v0H71V25.27c0-5-5.59-5.4-5.59-5.4H44.24s-5.58.41-5.58,5.4V60L33,60V46.9c.53,0,1,0,1.43,0a2.67,2.67,0,0,0,2.75-2.67,2.71,2.71,0,0,0-2.78-2.63c-1.37,0-2.75,0-4.13,0a3.66,3.66,0,0,0-.81.09,2.86,2.86,0,0,0-2.24,2.94c0,5.11,0,10.23,0,15.34-2.47,0-4.94,0-7.41,0C13.59,59.92,8.06,58,4.29,52.8.11,47-.35,37.42,3.44,31.9c3-4.33,7.47-6.58,12.61-7.29,2.94-.41,4-1.46,4.57-4.21,1.29-6,4.31-11.25,9.78-14.77,9.2-5.91,24.86-6,33.54,5.5.32.43.66.85,1,1.25,15.43-6.87,31.56,2.34,30.82,18.16,5.36,1.14,9.7,3.58,11.69,8.61A16.3,16.3,0,0,1,105.94,54.77Z"/><path class="cls-2" d="M77,47.71V46.9H75.56a2.73,2.73,0,0,1-2.77-2.68,2.7,2.7,0,0,1,2.78-2.64c1.46,0,2.92,0,4.37,0a2.89,2.89,0,0,1,2.84,2.84c0,5.18.07,10.35,0,15.53H77C77,55.89,77,51.8,77,47.71Z"/><path class="cls-4" d="M95.49,99.7a.8.8,0,0,0-.58.88c0,2.62,0,5.24-.09,7.85a18.56,18.56,0,0,1-5.09,11.82,20.43,20.43,0,0,1-12.55,6.57c-11.52,1.61-21.28-5.29-23.68-15.2a19.06,19.06,0,0,1-.51-4.19c-.07-4.39,0-8.78,0-13.18V93.5c-.44,0-.81,0-1.18,0a3.37,3.37,0,0,1-2.44-1.19,1.69,1.69,0,0,0-.8-.48A27.64,27.64,0,0,1,34.47,84h0v0l-.11-.12c-.22-.22-.43-.45-.64-.68a2,2,0,0,1-.2-.25,22.27,22.27,0,0,1-3-4.23,23.42,23.42,0,0,1-2.89-8,34.27,34.27,0,0,1-.38-5.06c0-1.85,0-3.7,0-5.55H33v6.09a20,20,0,0,0,2.26,9.27,21.92,21.92,0,0,0,3,4.29A21.7,21.7,0,0,0,49,86.17a.91.91,0,0,0,.64-.14,3.32,3.32,0,0,1,2.16-.93c2.18,0,4.36,0,6.54,0a3.32,3.32,0,0,1,2.1.91.84.84,0,0,0,.65.15c8.37-2.49,13.58-7.82,15.5-16a21.43,21.43,0,0,0,.45-4.6c0-1.84,0-3.7,0-5.55v0h5.82c0,2.34,0,4.66-.08,7A25,25,0,0,1,74,85.43a27.16,27.16,0,0,1-12.53,6.39,1.69,1.69,0,0,0-.8.48,3.39,3.39,0,0,1-2.9,1.21c-.63-.05-.76.18-.75.73,0,4.29,0,8.59,0,12.89A16.28,16.28,0,0,0,70.68,122.9c9,1.62,17.58-3.61,19.71-12.14a21.08,21.08,0,0,0,.44-3.8c.07-1.21,0-2.42,0-3.62,0-.17,0-.34,0-.51h0v-1.51h0v-.13a1.33,1.33,0,0,0-.1-.82,21.37,21.37,0,0,1-3.11-1.76,6.54,6.54,0,0,1-2.35-7.18,7,7,0,0,1,5.87-5.23,7.45,7.45,0,0,1,8.4,4.86A7,7,0,0,1,95.49,99.7Z"/><path class="cls-3" d="M215,83.79c-9.85,9.31-22.57,13.64-36.39,13.64C143,97.43,127.94,74,127.8,50.08s16.14-48.4,50.76-48.4a50.47,50.47,0,0,1,35.16,14l-12,11.15c-6.29-5.91-14.77-8.66-23.12-8.66-23.12,0-33.11,16.53-33,31.87s9.3,31.08,33,31.08c8.35,0,17.79-3.28,24.08-9.31Z"/><polygon class="cls-5" points="325.22 3.65 325.22 95.46 307.17 95.46 307.17 28.83 275.97 68.7 272.41 68.7 241.9 28.7 241.9 95.46 223.84 95.46 223.84 3.65 244.64 3.65 274.6 43.13 304.56 3.65 325.22 3.65"/><polygon class="cls-3" points="359.84 20.31 359.84 41.42 411.69 41.42 411.69 57.55 359.84 57.55 359.84 78.28 413.61 78.28 413.61 95.33 341.92 95.33 341.92 3.52 413.61 3.52 413.61 20.31 359.84 20.31"/><path class="cls-3" d="M464,3.52H426.33V95.33H464c33.52,0,48.3-23.48,47.89-46.69C511.43,26,496.79,3.52,464,3.52Zm0,75.15h-19.7V19.91H464c20.8,0,29.56,14.3,30,28.59C494.33,63.46,485.71,78.67,464,78.67Z"/><path d="M239.35,120.36a4.85,4.85,0,0,1-3.92,2,5.89,5.89,0,0,1,0-11.77,4.88,4.88,0,0,1,3.92,1.95l1-.62a6,6,0,0,0-4.88-2.37,6.93,6.93,0,0,0,0,13.85,6.07,6.07,0,0,0,4.9-2.38Z"/><path d="M246.67,113.17c-2.84,0-4.64,2.25-4.64,5.08s1.8,5.1,4.64,5.1,4.67-2.27,4.67-5.1S249.54,113.17,246.67,113.17Zm0,9.24c-2.25,0-3.54-2-3.54-4.16s1.29-4.13,3.54-4.13,3.55,2,3.55,4.13S249,122.41,246.67,122.41Z"/><path d="M258.56,113.17a4.89,4.89,0,0,0-3.49,1.71v-1.47h-1v9.7h1v-7.33a4.16,4.16,0,0,1,3.15-1.66c1.41,0,2.35.56,2.35,2.43v6.56h1v-6.78C261.61,114.14,260.53,113.17,258.56,113.17Z"/><path d="M269.4,113.17a4.87,4.87,0,0,0-3.49,1.71v-1.47h-1.05v9.7h1.05v-7.33a4.14,4.14,0,0,1,3.15-1.66c1.4,0,2.35.56,2.35,2.43v6.56h1v-6.78C272.45,114.14,271.37,113.17,269.4,113.17Z"/><path d="M284.39,118.31c0-2.81-1.63-5.14-4.58-5.14a5.1,5.1,0,0,0,.18,10.18,5,5,0,0,0,3.79-1.56l-.54-.69a4.22,4.22,0,0,1-3.17,1.35,3.78,3.78,0,0,1-3.79-3.86h8.11Zm-8.11-.54a3.64,3.64,0,0,1,3.51-3.69,3.56,3.56,0,0,1,3.54,3.69Z"/><path d="M291.28,122.41c-2.27,0-3.65-1.83-3.65-4.16s1.38-4.13,3.65-4.13a3.06,3.06,0,0,1,2.65,1.34l.72-.64a4,4,0,0,0-3.43-1.65c-2.85,0-4.7,2.25-4.7,5.08s1.85,5.1,4.7,5.1a4,4,0,0,0,3.43-1.66l-.72-.65A3.07,3.07,0,0,1,291.28,122.41Z"/><path d="M300.33,122a1.51,1.51,0,0,1-1.08.46c-.69,0-1-.54-1-1.33v-6.74h2v-.93h-2v-2.65h-1.06v2.65h-1.61v.93h1.61v6.9c0,1.33.62,2.11,1.91,2.11a2.21,2.21,0,0,0,1.65-.6Z"/><path d="M303,110.3a.81.81,0,0,0-.81.78.83.83,0,0,0,.81.81.8.8,0,0,0,.8-.81A.79.79,0,0,0,303,110.3Zm-.52,3.11v9.7h1v-9.7Z"/><path d="M311.32,113.17a4.89,4.89,0,0,0-3.49,1.71v-1.47h-1v9.7h1v-7.33a4.17,4.17,0,0,1,3.15-1.66c1.41,0,2.35.56,2.35,2.43v6.56h1.05v-6.78C314.38,114.14,313.29,113.17,311.32,113.17Z"/><path d="M324.77,113.41V115a4.13,4.13,0,0,0-3.37-1.81c-2.57,0-4.32,2-4.32,5.08s1.75,5.06,4.32,5.06a4.17,4.17,0,0,0,3.37-1.82V123c0,2.19-1.55,3.08-3.29,3.08a3.76,3.76,0,0,1-3.24-1.37l-.6.84a4.66,4.66,0,0,0,3.84,1.47c2.35,0,4.35-1.07,4.35-4v-9.62Zm0,7.19a3.89,3.89,0,0,1-3.19,1.77c-2.15,0-3.4-1.77-3.4-4.12s1.25-4.13,3.4-4.13a3.91,3.91,0,0,1,3.19,1.76Z"/><path d="M339.31,109.72h-5v13.39h1.15v-5.56h3.87a3.92,3.92,0,1,0,0-7.83Zm-.12,6.79h-3.75v-5.75h3.75a2.88,2.88,0,1,1,0,5.75Z"/><path d="M354.16,118.31c0-2.81-1.62-5.14-4.57-5.14a5.1,5.1,0,0,0,.18,10.18,5,5,0,0,0,3.79-1.56l-.54-.69a4.24,4.24,0,0,1-3.17,1.35,3.79,3.79,0,0,1-3.8-3.86h8.11Zm-8.11-.54a3.64,3.64,0,0,1,3.52-3.69,3.55,3.55,0,0,1,3.53,3.69Z"/><path d="M360.94,113.17c-2.83,0-4.64,2.25-4.64,5.08s1.81,5.1,4.64,5.1,4.68-2.27,4.68-5.1S363.81,113.17,360.94,113.17Zm0,9.24c-2.25,0-3.53-2-3.53-4.16s1.28-4.13,3.53-4.13,3.56,2,3.56,4.13S363.23,122.41,360.94,122.41Z"/><path d="M372.72,113.17a4.18,4.18,0,0,0-3.38,1.77v-1.53h-1v13.4h1v-5.26a4.15,4.15,0,0,0,3.38,1.8c2.59,0,4.33-2,4.33-5.1S375.31,113.17,372.72,113.17Zm-.18,9.24a4,4,0,0,1-3.2-1.77v-4.8a3.93,3.93,0,0,1,3.2-1.72c2.16,0,3.39,1.78,3.39,4.13S374.7,122.41,372.54,122.41Z"/><path d="M382.81,122a1.55,1.55,0,0,1-1.09.46c-.68,0-1-.54-1-1.33V109.72h-1.05v11.52c0,1.33.63,2.11,1.89,2.11a2.2,2.2,0,0,0,1.65-.6Z"/><path d="M393.5,118.31c0-2.81-1.62-5.14-4.57-5.14a5.1,5.1,0,0,0,.18,10.18,5,5,0,0,0,3.79-1.56l-.54-.69a4.24,4.24,0,0,1-3.17,1.35,3.79,3.79,0,0,1-3.8-3.86h8.11Zm-8.11-.54a3.65,3.65,0,0,1,3.52-3.69,3.55,3.55,0,0,1,3.53,3.69Z"/><path d="M396.73,121.55a.87.87,0,0,0-.87.86.81.81,0,0,0,.83.84l.2,0a2.73,2.73,0,0,1-1.17,1.85l.59.48a3.47,3.47,0,0,0,1.44-2.73C397.75,122,397.27,121.55,396.73,121.55Z"/><path d="M406.7,113c0-1.44,1.34-2.47,3.13-2.47a4.76,4.76,0,0,1,3.83,1.69l.77-.85a5.76,5.76,0,0,0-4.54-1.88c-2.43,0-4.4,1.38-4.4,3.57,0,4.68,8,2.63,8,6.57,0,1.14-.78,2.67-3.51,2.67a5.53,5.53,0,0,1-4.2-2l-.74.86a6.2,6.2,0,0,0,4.9,2.13c3.62,0,4.76-2.06,4.76-3.79C414.73,114.56,406.7,116.45,406.7,113Z"/><path d="M424.58,113.41V115a4.13,4.13,0,0,0-3.37-1.81c-2.57,0-4.32,2-4.32,5.1s1.75,5.08,4.32,5.08a4.12,4.12,0,0,0,3.37-1.79v1.55h1.06v-9.7Zm0,7.27a3.88,3.88,0,0,1-3.19,1.73c-2.15,0-3.4-1.79-3.4-4.14s1.25-4.15,3.4-4.15a3.93,3.93,0,0,1,3.19,1.76Z"/><path d="M435.59,113.41l-3.49,8.48-3.54-8.48H427.4l4.09,9.7h1.19l4.09-9.7Z"/><path d="M439.06,110.3a.81.81,0,0,0-.81.78.83.83,0,0,0,.81.81.8.8,0,0,0,.8-.81A.79.79,0,0,0,439.06,110.3Zm-.53,3.11v9.7h1.05v-9.7Z"/><path d="M447.36,113.17a4.89,4.89,0,0,0-3.49,1.71v-1.47h-1.05v9.7h1.05v-7.33a4.16,4.16,0,0,1,3.15-1.66c1.41,0,2.35.56,2.35,2.43v6.56h1v-6.78C450.41,114.14,449.33,113.17,447.36,113.17Z"/><path d="M460.81,113.41V115a4.13,4.13,0,0,0-3.37-1.81c-2.57,0-4.32,2-4.32,5.08s1.75,5.06,4.32,5.06a4.18,4.18,0,0,0,3.37-1.82V123c0,2.19-1.55,3.08-3.29,3.08a3.75,3.75,0,0,1-3.24-1.37l-.6.84a4.66,4.66,0,0,0,3.84,1.47c2.35,0,4.35-1.07,4.35-4v-9.62Zm0,7.19a3.89,3.89,0,0,1-3.19,1.77c-2.15,0-3.4-1.77-3.4-4.12s1.25-4.13,3.4-4.13a3.91,3.91,0,0,1,3.19,1.76Z"/><path d="M471.22,122.07V109.72h-1.17v13.39h7.65v-1Z"/><path d="M480.52,110.3a.8.8,0,0,0-.8.78.82.82,0,0,0,.8.81.81.81,0,0,0,.81-.81A.79.79,0,0,0,480.52,110.3Zm-.52,3.11v9.7h1.05v-9.7Z"/><path d="M491,113.41l-3.49,8.48L484,113.41h-1.16l4.09,9.7h1.19l4.1-9.7Z"/><path d="M502.64,118.31c0-2.81-1.63-5.14-4.58-5.14a5.1,5.1,0,0,0,.18,10.18,5,5,0,0,0,3.8-1.56l-.54-.69a4.26,4.26,0,0,1-3.18,1.35,3.78,3.78,0,0,1-3.79-3.86h8.11Zm-8.11-.54a3.64,3.64,0,0,1,3.51-3.69,3.57,3.57,0,0,1,3.54,3.69Z"/><path d="M505.74,115.82c0-1,.9-1.76,2.41-1.76a3.53,3.53,0,0,1,2.89,1.28l.58-.74a4.42,4.42,0,0,0-3.47-1.43c-2.19,0-3.45,1.21-3.45,2.69,0,3.5,6.12,2,6.12,4.64,0,1.13-1,2-2.59,2A4,4,0,0,1,505.1,121l-.62.77a4.64,4.64,0,0,0,3.73,1.54c2.43,0,3.64-1.28,3.64-2.85C511.85,116.77,505.74,118.25,505.74,115.82Z"/><path class="cls-2" d="M33,47.67v-.81h1.45a2.73,2.73,0,0,0,2.77-2.68,2.7,2.7,0,0,0-2.78-2.64c-1.46,0-2.92,0-4.37,0a2.89,2.89,0,0,0-2.84,2.84c0,5.18-.07,10.35,0,15.53H33C33,55.85,33,51.76,33,47.67Z"/></svg>