<?xml version="1.0" encoding="utf-8"?>
<!-- Generator: Adobe Illustrator 26.0.1, SVG Export Plug-In . SVG Version: 6.00 Build 0)  -->
<svg version="1.1" id="Layer_1" xmlns="http://www.w3.org/2000/svg" xmlns:xlink="http://www.w3.org/1999/xlink" x="0px" y="0px"
	 viewBox="0 0 1080 580" style="enable-background:new 0 0 1080 580;" xml:space="preserve">
<style type="text/css">
	.st0{fill:#EC0B6D;}
	.st1{fill:#004892;}
</style>
<g>
	<g>
		<path class="st0" d="M160.91,153.71c-9.27,0-16.74-2.63-22.43-7.9c-5.69-5.26-8.53-11.79-8.53-19.59c0-7.79,2.84-14.32,8.53-19.59
			c5.69-5.26,13.16-7.9,22.43-7.9c9.05,0,16.48,2.48,22.27,7.43c5.79,4.95,8.69,11.32,8.69,19.11c0,8.21-2.84,15.01-8.53,20.38
			C177.65,151.02,170.18,153.71,160.91,153.71z M136.27,347.38V177.4h49.29v169.98H136.27z"/>
		<path class="st1" d="M220.86,300.94V266.5l104.26-140.28h53.71L277.1,266.5l-25.28-7.27H425.9v41.7H220.86z M339.97,347.38v-46.44
			l1.58-41.7v-41.39h48.34v129.54H339.97z"/>
		<path class="st0" d="M506,347.38l-72.66-221.16h53.08l62.87,195.88h-26.54l65.72-195.88h47.39l63.18,195.88h-25.59l64.45-195.88
			h48.97l-72.66,221.16h-54.34l-56.24-171.87h14.53l-57.5,171.87H506z"/>
		<path class="st0" d="M897.86,349.91c-19.38,0-36.33-3.79-50.87-11.37c-14.53-7.58-25.8-17.95-33.81-31.12
			c-8.01-13.16-12.01-28.17-12.01-45.02c0-16.85,3.84-31.91,11.53-45.18c7.69-13.27,18.43-23.64,32.23-31.12
			c13.79-7.47,29.33-11.22,46.6-11.22c16.63,0,31.64,3.58,45.02,10.74c13.37,7.16,23.96,17.27,31.75,30.33
			C976.1,229.01,980,244.7,980,263.02c0,1.9-0.11,4.06-0.32,6.48c-0.21,2.42-0.42,4.69-0.63,6.79H840.99v-28.75h112.16l-19.27,8.53
			c0.21-8.85-1.47-16.53-5.06-23.06c-3.58-6.53-8.53-11.64-14.85-15.32c-6.32-3.68-13.69-5.53-22.12-5.53
			c-8.43,0-15.85,1.85-22.27,5.53c-6.43,3.69-11.43,8.85-15.01,15.48c-3.58,6.63-5.37,14.48-5.37,23.54v7.58
			c0,9.48,2.1,17.69,6.32,24.64c4.21,6.95,10,12.27,17.38,15.96c7.37,3.69,16.22,5.53,26.54,5.53c8.85,0,16.69-1.37,23.54-4.11
			c6.84-2.73,13.11-6.84,18.8-12.32l26.22,28.44c-7.79,8.84-17.59,15.64-29.38,20.38C926.82,347.54,913.23,349.91,897.86,349.91z"/>
	</g>
	<g>
		<path class="st1" d="M100,480.66v-60.68h11.27v60.68H100z"/>
		<path class="st1" d="M127.48,480.66v-46.29h10.32v12.57l-1.82-3.9c1.56-2.95,3.88-5.23,6.98-6.85c3.09-1.62,6.66-2.43,10.71-2.43
			c3.76,0,7.06,0.72,9.92,2.17c2.86,1.44,5.14,3.67,6.85,6.68c1.7,3.01,2.56,6.85,2.56,11.53v26.52h-10.84v-25.14
			c0-4.1-0.95-7.16-2.86-9.19c-1.91-2.02-4.62-3.03-8.15-3.03c-2.54,0-4.8,0.52-6.76,1.56c-1.97,1.04-3.48,2.59-4.55,4.64
			c-1.07,2.05-1.6,4.64-1.6,7.76v23.41H127.48z"/>
		<path class="st1" d="M199.08,480.66l-19.85-46.29h11.18l17.16,40.83h-5.55l17.68-40.83h10.4l-19.85,46.29H199.08z"/>
		<path class="st1" d="M258.2,481.26c-5.14,0-9.64-1.02-13.48-3.08c-3.84-2.05-6.82-4.86-8.93-8.41c-2.11-3.55-3.17-7.64-3.17-12.26
			s1.03-8.71,3.08-12.27c2.05-3.55,4.88-6.35,8.5-8.41c3.61-2.05,7.73-3.08,12.35-3.08c4.51,0,8.52,0.99,12.05,2.99
			c3.52,1.99,6.3,4.78,8.32,8.36c2.02,3.58,3.03,7.83,3.03,12.74c0,0.41-0.01,0.91-0.04,1.52c-0.03,0.61-0.07,1.14-0.13,1.61h-38.57
			v-7.19h32.85l-4.33,2.25c0.06-2.6-0.48-4.93-1.6-6.98c-1.13-2.05-2.67-3.64-4.64-4.77c-1.96-1.13-4.28-1.69-6.93-1.69
			c-2.6,0-4.93,0.56-6.98,1.69c-2.05,1.13-3.63,2.73-4.72,4.81c-1.1,2.08-1.65,4.48-1.65,7.19v1.73c0,2.77,0.62,5.23,1.86,7.37
			c1.24,2.14,3.02,3.8,5.33,4.98c2.31,1.19,5,1.78,8.06,1.78c2.6,0,4.94-0.43,7.02-1.3c2.08-0.87,3.93-2.14,5.55-3.81l5.89,6.76
			c-2.14,2.43-4.78,4.28-7.93,5.55C265.84,480.63,262.24,481.26,258.2,481.26z"/>
		<path class="st1" d="M305.61,481.26c-3.93,0-7.66-0.51-11.18-1.52c-3.53-1.01-6.36-2.24-8.49-3.68l4.16-8.24
			c2.08,1.33,4.56,2.42,7.45,3.25s5.81,1.26,8.76,1.26c3.35,0,5.79-0.45,7.33-1.34c1.53-0.9,2.3-2.12,2.3-3.68
			c0-1.27-0.52-2.24-1.56-2.9c-1.04-0.66-2.4-1.17-4.08-1.52c-1.68-0.35-3.54-0.66-5.59-0.95c-2.05-0.29-4.11-0.68-6.15-1.17
			c-2.05-0.49-3.92-1.21-5.59-2.17c-1.68-0.95-3.03-2.24-4.07-3.85c-1.04-1.62-1.56-3.79-1.56-6.5c0-2.89,0.84-5.42,2.51-7.58
			c1.68-2.17,4.03-3.86,7.06-5.07c3.03-1.22,6.63-1.82,10.79-1.82c3.06,0,6.2,0.36,9.41,1.08c3.21,0.72,5.88,1.72,8.02,2.99
			l-4.25,8.24c-2.14-1.27-4.33-2.15-6.59-2.65c-2.25-0.49-4.48-0.74-6.67-0.74c-3.24,0-5.66,0.48-7.28,1.43
			c-1.62,0.95-2.43,2.18-2.43,3.68c0,1.39,0.52,2.42,1.56,3.12c1.04,0.69,2.4,1.23,4.07,1.61c1.68,0.38,3.54,0.72,5.59,1.04
			c2.05,0.32,4.09,0.72,6.11,1.21c2.02,0.49,3.88,1.19,5.59,2.08c1.7,0.89,3.08,2.15,4.12,3.77c1.04,1.62,1.56,3.73,1.56,6.33
			c0,2.95-0.85,5.48-2.56,7.59s-4.1,3.76-7.19,4.94C313.66,480.67,309.95,481.26,305.61,481.26z"/>
		<path class="st1" d="M330.58,443.04v-8.67h30.86v8.67H330.58z M354.16,481.26c-5.09,0-9.02-1.31-11.79-3.94
			c-2.77-2.63-4.16-6.49-4.16-11.57v-41.61h10.75v41.26c0,2.2,0.58,3.9,1.73,5.11c1.15,1.22,2.77,1.82,4.85,1.82
			c2.37,0,4.33-0.64,5.89-1.91l3.12,7.72c-1.33,1.04-2.92,1.82-4.77,2.34C357.94,481,356.06,481.26,354.16,481.26z"/>
		<path class="st1" d="M392.9,443.38v-8.67h30.86v8.67H392.9z M400.53,480.66v-48.8c0-4.91,1.43-8.83,4.29-11.75
			c2.86-2.92,6.95-4.38,12.27-4.38c1.91,0,3.71,0.21,5.42,0.61c1.7,0.41,3.13,1.04,4.29,1.91l-3.03,8.06
			c-0.75-0.52-1.65-0.95-2.69-1.3c-1.04-0.35-2.11-0.52-3.21-0.52c-2.25,0-3.96,0.62-5.11,1.86c-1.16,1.24-1.73,3.08-1.73,5.51v5.37
			l0.26,4.77v38.66H400.53z"/>
		<path class="st1" d="M451.93,481.26c-4.68,0-8.88-1.02-12.61-3.08c-3.73-2.05-6.66-4.87-8.8-8.45c-2.14-3.58-3.21-7.66-3.21-12.22
			c0-4.68,1.07-8.79,3.21-12.31c2.14-3.52,5.06-6.31,8.76-8.37c3.7-2.05,7.92-3.08,12.65-3.08c4.8,0,9.06,1.02,12.79,3.08
			c3.73,2.05,6.64,4.84,8.76,8.37c2.11,3.52,3.16,7.63,3.16,12.31c0,4.62-1.05,8.71-3.16,12.26c-2.11,3.55-5.04,6.36-8.8,8.41
			S456.67,481.26,451.93,481.26z M451.93,472.07c2.66,0,5.03-0.59,7.11-1.78c2.08-1.19,3.71-2.89,4.9-5.11
			c1.18-2.23,1.78-4.78,1.78-7.67c0-2.95-0.59-5.51-1.78-7.67c-1.19-2.17-2.82-3.84-4.9-5.03c-2.08-1.19-4.42-1.78-7.02-1.78
			c-2.6,0-4.94,0.59-7.02,1.78c-2.08,1.19-3.73,2.86-4.94,5.03c-1.21,2.17-1.82,4.72-1.82,7.67c0,2.89,0.61,5.45,1.82,7.67
			c1.21,2.23,2.86,3.93,4.94,5.11C447.08,471.48,449.39,472.07,451.93,472.07z"/>
		<path class="st1" d="M487.99,480.66v-46.29h10.32v12.74l-1.22-3.73c1.33-3.12,3.5-5.51,6.5-7.15c3-1.65,6.67-2.47,11.01-2.47
			v10.32c-0.41-0.06-0.81-0.1-1.22-0.13s-0.78-0.04-1.13-0.04c-4.16,0-7.45,1.19-9.88,3.55c-2.42,2.37-3.64,5.98-3.64,10.84v22.36
			H487.99z"/>
		<path class="st1" d="M565.22,480.66l-20.11-60.68h11.7l17.94,54.87h-5.81l18.64-54.87h10.4l18.12,54.87h-5.63l18.38-54.87h10.75
			l-20.11,60.68h-11.96l-16.55-49.5h3.12l-16.73,49.5H565.22z"/>
		<path class="st1" d="M666.91,481.26c-5.14,0-9.64-1.02-13.48-3.08s-6.82-4.86-8.93-8.41c-2.11-3.55-3.16-7.64-3.16-12.26
			s1.02-8.71,3.08-12.27c2.05-3.55,4.88-6.35,8.49-8.41c3.61-2.05,7.73-3.08,12.35-3.08c4.51,0,8.52,0.99,12.05,2.99
			c3.52,1.99,6.3,4.78,8.32,8.36c2.02,3.58,3.03,7.83,3.03,12.74c0,0.41-0.01,0.91-0.04,1.52c-0.03,0.61-0.07,1.14-0.13,1.61h-38.57
			v-7.19h32.86l-4.33,2.25c0.06-2.6-0.48-4.93-1.6-6.98c-1.13-2.05-2.68-3.64-4.64-4.77c-1.97-1.13-4.28-1.69-6.94-1.69
			c-2.6,0-4.93,0.56-6.98,1.69c-2.05,1.13-3.63,2.73-4.72,4.81c-1.1,2.08-1.65,4.48-1.65,7.19v1.73c0,2.77,0.62,5.23,1.86,7.37
			s3.02,3.8,5.33,4.98c2.31,1.19,5,1.78,8.06,1.78c2.6,0,4.94-0.43,7.02-1.3s3.93-2.14,5.55-3.81l5.9,6.76
			c-2.14,2.43-4.78,4.28-7.93,5.55C674.55,480.63,670.95,481.26,666.91,481.26z"/>
		<path class="st1" d="M700.02,480.66v-64.32h10.75v64.32H700.02z"/>
		<path class="st1" d="M726.02,480.66v-64.32h10.75v64.32H726.02z"/>
		<path class="st1" d="M752.03,480.66v-46.29h10.32v12.57l-1.82-3.9c1.56-2.95,3.88-5.23,6.98-6.85c3.09-1.62,6.66-2.43,10.71-2.43
			c3.76,0,7.06,0.72,9.93,2.17c2.86,1.44,5.14,3.67,6.85,6.68s2.56,6.85,2.56,11.53v26.52H786.7v-25.14c0-4.1-0.95-7.16-2.86-9.19
			c-1.91-2.02-4.62-3.03-8.15-3.03c-2.54,0-4.8,0.52-6.76,1.56c-1.96,1.04-3.48,2.59-4.55,4.64c-1.07,2.05-1.61,4.64-1.61,7.76
			v23.41H752.03z"/>
		<path class="st1" d="M833.95,481.26c-5.14,0-9.64-1.02-13.48-3.08s-6.82-4.86-8.93-8.41c-2.11-3.55-3.16-7.64-3.16-12.26
			s1.02-8.71,3.08-12.27c2.05-3.55,4.88-6.35,8.49-8.41c3.61-2.05,7.73-3.08,12.35-3.08c4.51,0,8.52,0.99,12.05,2.99
			c3.52,1.99,6.3,4.78,8.32,8.36c2.02,3.58,3.03,7.83,3.03,12.74c0,0.41-0.01,0.91-0.04,1.52c-0.03,0.61-0.07,1.14-0.13,1.61h-38.57
			v-7.19h32.86l-4.33,2.25c0.06-2.6-0.48-4.93-1.6-6.98c-1.13-2.05-2.68-3.64-4.64-4.77c-1.97-1.13-4.28-1.69-6.94-1.69
			c-2.6,0-4.93,0.56-6.98,1.69c-2.05,1.13-3.63,2.73-4.72,4.81c-1.1,2.08-1.65,4.48-1.65,7.19v1.73c0,2.77,0.62,5.23,1.86,7.37
			c1.24,2.14,3.02,3.8,5.33,4.98s5,1.78,8.06,1.78c2.6,0,4.94-0.43,7.02-1.3s3.93-2.14,5.55-3.81l5.9,6.76
			c-2.14,2.43-4.78,4.28-7.93,5.55C841.59,480.63,837.99,481.26,833.95,481.26z"/>
		<path class="st1" d="M881.36,481.26c-3.93,0-7.66-0.51-11.18-1.52c-3.53-1.01-6.36-2.24-8.5-3.68l4.16-8.24
			c2.08,1.33,4.56,2.42,7.45,3.25c2.89,0.84,5.81,1.26,8.76,1.26c3.35,0,5.79-0.45,7.33-1.34s2.3-2.12,2.3-3.68
			c0-1.27-0.52-2.24-1.56-2.9c-1.04-0.66-2.4-1.17-4.07-1.52c-1.68-0.35-3.54-0.66-5.59-0.95c-2.05-0.29-4.11-0.68-6.15-1.17
			c-2.05-0.49-3.92-1.21-5.59-2.17c-1.68-0.95-3.03-2.24-4.08-3.85c-1.04-1.62-1.56-3.79-1.56-6.5c0-2.89,0.84-5.42,2.51-7.58
			c1.68-2.17,4.03-3.86,7.07-5.07c3.03-1.22,6.63-1.82,10.79-1.82c3.06,0,6.2,0.36,9.4,1.08c3.21,0.72,5.88,1.72,8.02,2.99
			l-4.25,8.24c-2.14-1.27-4.33-2.15-6.59-2.65c-2.25-0.49-4.48-0.74-6.67-0.74c-3.24,0-5.67,0.48-7.28,1.43
			c-1.62,0.95-2.42,2.18-2.42,3.68c0,1.39,0.52,2.42,1.56,3.12c1.04,0.69,2.4,1.23,4.08,1.61c1.67,0.38,3.54,0.72,5.59,1.04
			c2.05,0.32,4.09,0.72,6.11,1.21c2.02,0.49,3.89,1.19,5.59,2.08c1.7,0.89,3.08,2.15,4.12,3.77c1.04,1.62,1.56,3.73,1.56,6.33
			c0,2.95-0.85,5.48-2.56,7.59c-1.71,2.11-4.11,3.76-7.19,4.94C889.41,480.67,885.69,481.26,881.36,481.26z"/>
		<path class="st1" d="M926.87,481.26c-3.93,0-7.66-0.51-11.18-1.52c-3.53-1.01-6.36-2.24-8.5-3.68l4.16-8.24
			c2.08,1.33,4.56,2.42,7.45,3.25c2.89,0.84,5.81,1.26,8.76,1.26c3.35,0,5.79-0.45,7.33-1.34s2.3-2.12,2.3-3.68
			c0-1.27-0.52-2.24-1.56-2.9c-1.04-0.66-2.4-1.17-4.07-1.52c-1.68-0.35-3.54-0.66-5.59-0.95c-2.05-0.29-4.11-0.68-6.15-1.17
			c-2.05-0.49-3.92-1.21-5.59-2.17c-1.68-0.95-3.03-2.24-4.08-3.85c-1.04-1.62-1.56-3.79-1.56-6.5c0-2.89,0.84-5.42,2.51-7.58
			c1.68-2.17,4.03-3.86,7.07-5.07c3.03-1.22,6.63-1.82,10.79-1.82c3.06,0,6.2,0.36,9.4,1.08c3.21,0.72,5.88,1.72,8.02,2.99
			l-4.25,8.24c-2.14-1.27-4.33-2.15-6.59-2.65c-2.25-0.49-4.48-0.74-6.67-0.74c-3.24,0-5.67,0.48-7.28,1.43s-2.42,2.18-2.42,3.68
			c0,1.39,0.52,2.42,1.56,3.12c1.04,0.69,2.4,1.23,4.08,1.61c1.67,0.38,3.54,0.72,5.59,1.04c2.05,0.32,4.09,0.72,6.11,1.21
			c2.02,0.49,3.89,1.19,5.59,2.08c1.7,0.89,3.08,2.15,4.12,3.77c1.04,1.62,1.56,3.73,1.56,6.33c0,2.95-0.85,5.48-2.56,7.59
			c-1.71,2.11-4.11,3.76-7.19,4.94C934.92,480.67,931.2,481.26,926.87,481.26z"/>
	</g>
</g>
</svg>
