<svg id="Layer_1" data-name="Layer 1" xmlns="http://www.w3.org/2000/svg" viewBox="0 0 285.36 379.93"><defs><style>.cls-1{fill:#578f40;}.cls-2{fill:#75ab42;}.cls-3{fill:#538d3f;}.cls-4{fill:#006847;}.cls-5{fill:#d92d27;}.cls-6{fill:#642d91;}.cls-7{fill:#6aa342;}</style></defs><path class="cls-1" d="M222.79,224.28c-6.48,20.61-21.76,32.84-37.09,39.09l-.48.19-.94-.21c-18.34-4.32-26.94-20.89-26.94-20.89s12.82-.76,16.07-14.16,9-19.33,21.82-23.73,32.15-17,28.89-36.83C226.8,174.53,230.25,200.55,222.79,224.28Z"/><path class="cls-2" d="M137,217.3c9.47,9.09,14.83,25.54,19.33,33.58,3.45,6.18,15.22,12.07,28,12.47-18.34-4.33-26.94-20.89-26.94-20.89s-1.15-5-6.89-17.22-18.75-19.33-24.69-23-8.8-5.54-18.37-13.77S98,166.68,98,166.68c-.61,2.81-1.24,5.7-1.8,8.69a34.8,34.8,0,0,0,7.25,13.7C110.17,196.82,127.49,208.22,137,217.3Z"/><path class="cls-3" d="M185.22,263.56a67.54,67.54,0,0,1-6.44,2.24c-17.43,5.17-55.12,2.69-72.34-27.93-14.61-26-13.38-45.77-10.22-62.5a35,35,0,0,0,7.25,13.7c6.7,7.75,24,19.15,33.49,28.23s14.47,25.76,19.32,33.59c3.16,5.09,15.23,12.06,28,12.46Z"/><path class="cls-4" d="M272.16,155.58c-12.82-23.73-30.24-45.16-53.2-69.85S186.24,45.16,175.71,23c3.25,23,32.72,65.07,49.18,98s19.52,64.11,16.46,87.84c-7.46,59.32-53,74.06-79.42,74.44a86.09,86.09,0,0,1-13.15-.8c15,4.64,40.57,7,69.73-5.64,23.24-10.08,35.45-24.15,42.58-35.9A106.49,106.49,0,0,0,266.8,230c2.79-12.27,2.74-22.33,2.87-31.57a224.43,224.43,0,0,1,15.69,25.07C286.51,204,285,179.31,272.16,155.58Z"/><path class="cls-5" d="M58.59,211.65c-3.44-34.64,6.7-58.37,23.54-84.2S130,67,142,51.86c6-7.5,11.72-14.48,16-19.61,7.11-14.53,9.14-25.4,8.31-32.25-11.1,31.19-39.42,47.84-68.89,66S54.19,91.09,26.06,118.46,0,187.54,0,187.54c10.71-38.27,49.56-58.75,49.56-58.75a160.3,160.3,0,0,0-11.48,39c-3.06,20.78-1,47.36,12.25,77s40.76,57.79,72.14,65.45q4,1,8,1.77a178.82,178.82,0,0,1-21.46-13.49C71.71,277.45,61.73,243.2,58.59,211.65Z"/><path class="cls-6" d="M89.28,249.61c10.71,17,34.06,43.37,75.27,43.5s59.32-9.44,79.22-27.11c10.39-9.22,15.14-18.42,17.32-25.12-7.13,11.75-19.34,25.82-42.58,35.9-29.16,12.66-54.69,10.28-69.73,5.64-21.64-3-41.91-14.52-55.93-37.47-14.93-24.43-15-46.75-12.39-68.76a46.29,46.29,0,0,0-3.94,18.56C76.39,209.67,78.56,232.64,89.28,249.61Z"/><path class="cls-6" d="M261.09,240.88c-2.18,6.7-6.93,15.9-17.32,25.12-19.9,17.67-38,27.24-79.22,27.11S100,266.57,89.28,249.61s-12.89-39.94-12.76-54.86a46.29,46.29,0,0,1,3.94-18.56c.34-2.82.71-5.63,1.1-8.45,2.81-20.19,14-45.42,24.47-62.66a164.72,164.72,0,0,0-16.5,21.41c-11.1,17.35-23.6,43.89-24.75,72s4.08,47,19,73.48c5.53,9.82,14.78,18.81,25.26,26.56A178.82,178.82,0,0,0,130.51,312c28,5.62,52.48,3.75,77-8.66,26.79-13.59,45-34.26,53.58-55.31a113.83,113.83,0,0,0,5.74-18A106.49,106.49,0,0,1,261.09,240.88Z"/><path class="cls-5" d="M82.13,127.45c-16.84,25.83-27,49.56-23.54,84.2,3.14,31.55,13.12,65.8,50.46,86.84-10.48-7.75-19.73-16.74-25.26-26.56-14.93-26.53-20.16-45.42-19-73.48s13.65-54.61,24.75-72A164.72,164.72,0,0,1,106,105.08c2.38-3.91,4.72-7.42,6.91-10.35,11.87-15.89,18-19.14,34.07-43.44a169.36,169.36,0,0,0,11-19c-4.27,5.13-10,12.11-16,19.61C130,67,99,101.62,82.13,127.45Z"/><ellipse class="cls-7" cx="194.91" cy="172.23" rx="20.26" ry="20.55"/><ellipse class="cls-7" cx="130.45" cy="172.23" rx="20.26" ry="20.55"/><ellipse class="cls-4" cx="261.02" cy="84.87" rx="24.65" ry="24.59"/><ellipse class="cls-5" cx="73.52" cy="34.06" rx="27.37" ry="27.75"/><path class="cls-5" d="M189.4,106.56a30,30,0,1,0,2.35,11.64A29.88,29.88,0,0,0,189.4,106.56Zm-27.56,39a27.38,27.38,0,1,1,27.37-27.38A27.41,27.41,0,0,1,161.84,145.58Z"/><path class="cls-5" d="M179.05,112.23H167.78V100.9a1.73,1.73,0,0,0-1.72-1.73h-8.44a1.73,1.73,0,0,0-1.72,1.73v11.33H144.63a1.73,1.73,0,0,0-1.72,1.73v8.49a1.73,1.73,0,0,0,1.72,1.73H155.9v11.33a1.73,1.73,0,0,0,1.72,1.73h8.44a1.73,1.73,0,0,0,1.72-1.73V124.18h11.27a1.73,1.73,0,0,0,1.72-1.73V114A1.73,1.73,0,0,0,179.05,112.23Z"/><path class="cls-5" d="M45.53,337.15c-.45.74-1.06,1.86-1.84,3.36a30.82,30.82,0,0,1-1.32,3,.61.61,0,0,1-.53.3l-3.25-1.19a16.63,16.63,0,0,0-5.39-1.19q-6.18,0-6.18,5.44,0,3,4.33,5.28,7.29,3.79,8.07,4.36a11.34,11.34,0,0,1,4.33,9.35,13.88,13.88,0,0,1-6,11.86,21.68,21.68,0,0,1-13.14,3.9c-2.42,0-3.71-.27-3.89-.81-.09-.85-.29-2.09-.61-3.73-.18-.67-.46-1.68-.84-3a1.76,1.76,0,0,1-.1-.57c0-.32.17-.48.5-.48.54,0,1.37.06,2.47.17a24.87,24.87,0,0,0,2.51.17q10.41,0,10.42-6.72,0-3.3-4.2-5.71-7.67-4.38-7.83-4.54a11.21,11.21,0,0,1-4.24-9.21,13,13,0,0,1,4.1-10,14.82,14.82,0,0,1,10.35-3.63,26.11,26.11,0,0,1,6.19.87,17.59,17.59,0,0,1,5.71,2.35A1.52,1.52,0,0,1,45.53,337.15Z"/><path class="cls-5" d="M81.79,350.43c0,1.63-.06,4.1-.2,7.41s-.2,5.78-.2,7.44,0,4.08.15,7.34.15,5.71.15,7.35a.83.83,0,0,1-.64.87c-.17,0-2.45.07-6.82.07-.27,0-.43-.84-.48-2.53s-.19-2.51-.39-2.51a1,1,0,0,0-.51.3Q67.24,381,61.77,381q-7.44,0-9.82-5.38-1.47-3.32-1.48-12a59.88,59.88,0,0,1,1.25-13.21c.2-.87.57-1.31,1.11-1.31s1.62,0,2.92,0l2.92,0c.45,0,.68.25.68.74a36,36,0,0,1-.44,4.37c-.32,2.17-.48,3.71-.51,4.6-.06,1.35-.1,2.83-.1,4.44q0,5.88.84,7.9,1.45,3.61,6.42,3.62a9.08,9.08,0,0,0,5-2.08q3.06-2.19,3.16-4.2.17-2.52.17-17.74c0-1.1.46-1.65,1.37-1.65h5.55C81.47,349.25,81.79,349.64,81.79,350.43Z"/><path class="cls-4" d="M115.63,337.15c-.45.74-1.06,1.86-1.84,3.36a30.82,30.82,0,0,1-1.32,3,.61.61,0,0,1-.53.3l-3.25-1.19a16.63,16.63,0,0,0-5.39-1.19q-6.18,0-6.18,5.44,0,3,4.33,5.28,7.29,3.79,8.07,4.36a11.34,11.34,0,0,1,4.33,9.35,13.88,13.88,0,0,1-5.95,11.86,21.68,21.68,0,0,1-13.14,3.9c-2.42,0-3.71-.27-3.89-.81-.09-.85-.29-2.09-.61-3.73-.18-.67-.46-1.68-.84-3a1.76,1.76,0,0,1-.1-.57c0-.32.17-.48.5-.48.54,0,1.37.06,2.47.17a24.87,24.87,0,0,0,2.51.17q10.41,0,10.42-6.72,0-3.3-4.2-5.71-7.67-4.38-7.83-4.54A11.21,11.21,0,0,1,89,347.13a13,13,0,0,1,4.1-10,14.82,14.82,0,0,1,10.35-3.63,26.11,26.11,0,0,1,6.19.87,17.59,17.59,0,0,1,5.71,2.35A1.52,1.52,0,0,1,115.63,337.15Z"/><path class="cls-4" d="M153.44,350.49a3.67,3.67,0,0,1-.1.61A81.06,81.06,0,0,0,152,364.37q0,.35.84,15.09l0,.47c0,.65-.27,1-.89,1a27.65,27.65,0,0,0-2.79.21,25.25,25.25,0,0,1-2.77.22c-.43,0-.75-.78-1-2.35s-.44-2.35-.64-2.35A8.79,8.79,0,0,0,143,378a20.06,20.06,0,0,1-3.69,2.45,11.62,11.62,0,0,1-5.31,1.35,13.94,13.94,0,0,1-11-5.21,17.32,17.32,0,0,1-4.24-11.6,18.06,18.06,0,0,1,4.27-12.33,14.92,14.92,0,0,1,11.76-5.07,12.75,12.75,0,0,1,9,3.56c.38.45,1,1.1,1.78,1.95a.26.26,0,0,0,.2.1c.13,0,.32-.71.57-2.12s.56-2.12.94-2.12a20.56,20.56,0,0,1,3.39.51C152.52,349.82,153.44,350.18,153.44,350.49Zm-8.57,14.05a10.78,10.78,0,0,0-2.45-7.09,8.14,8.14,0,0,0-6.62-3.19,8.45,8.45,0,0,0-6.72,3.16,10.57,10.57,0,0,0-2.59,7.12,10.44,10.44,0,0,0,2.59,7.06,8.5,8.5,0,0,0,6.72,3.12,8.22,8.22,0,0,0,6.58-3.19A10.58,10.58,0,0,0,144.87,364.54Z"/><path class="cls-4" d="M174.64,370.56a9.59,9.59,0,0,1-4,8,14.24,14.24,0,0,1-8.84,2.75,12.4,12.4,0,0,1-2.29-.1c-.38-.18-.57-.73-.57-1.64a19.92,19.92,0,0,0-.18-2.22,18.44,18.44,0,0,1-.19-2.19c0-.29.2-.48.61-.57a3.6,3.6,0,0,1,1.24,0l1,.1q6.34,0,6.35-3.9,0-1.85-2.79-3.39a53.78,53.78,0,0,1-5.21-3.06,7.82,7.82,0,0,1-2.79-6.25,9.24,9.24,0,0,1,3.8-7.86,14.23,14.23,0,0,1,8.67-2.52.72.72,0,0,1,.69.44,24.43,24.43,0,0,1,.84,2.72,17.56,17.56,0,0,1,.62,2.75c0,.25-.21.41-.64.47-1.43.2-2.88.39-4.33.57-1.73.47-2.59,1.42-2.59,2.83,0,1,.91,2,2.72,3.05a32.55,32.55,0,0,1,5.11,3.26A8.87,8.87,0,0,1,174.64,370.56Z"/><path class="cls-4" d="M198.2,374.72a19.94,19.94,0,0,1-.13,2c-.12,1.05-.18,1.74-.2,2.05a2.6,2.6,0,0,1-.11.74,1.36,1.36,0,0,1-.63.47q-2.76,1.31-8.67,1.31-7.87,0-7.87-7.13,0-2.85.14-8.58t.13-8.59a1.32,1.32,0,0,0-1.38-1.48c-.83,0-1.64,0-2.45,0-.47-.11-.71-1-.71-2.75a16.71,16.71,0,0,1,.14-2.06,1.12,1.12,0,0,1,1.07-1q.84,0,1.65,0c1-.05,1.55-.51,1.55-1.38s0-2.26-.09-4.1-.08-3.21-.08-4.13c0-1.64.31-2.46.94-2.46q.3,0,6.32,1c.51.07.77.32.77.74,0,1-.07,2.47-.22,4.44s-.22,3.45-.22,4.44c0,.65.31,1,.91,1h8.07c.38,0,.57.13.57.4a11.1,11.1,0,0,1-.12,1.3,10.83,10.83,0,0,0-.12,1.32c0,.34,0,.86,0,1.55s0,1.21,0,1.55-.31.63-.94.63c-.9,0-2.25-.06-4.07-.18s-3.17-.19-4.06-.19c-.18,0-.32.64-.41,1.92q-.17,2.38-.17,6.69v5a10.47,10.47,0,0,0,.54,4c.54,1.16,1.65,1.75,3.33,1.75a15.66,15.66,0,0,0,3.06-.46,15.24,15.24,0,0,1,3-.45C198.07,374.12,198.2,374.32,198.2,374.72Z"/><path class="cls-4" d="M232.34,379.73c0,.83-.23,1.24-.7,1.24l-3.16,0-3.16,0q-.84,0-.84-1.11c0-1.08,0-2.7.12-4.88s.12-3.8.12-4.9,0-2.6-.12-4.69-.12-3.67-.12-4.72q0-6-5.71-6.05a10.09,10.09,0,0,0-4.84,1.85q-3.19,2-3.19,3.63v20c0,.65-.24,1-.71,1l-3.12,0-3.13,0c-.52,0-.77-.31-.77-.91V363.77q0-4-.44-16.87-.06-4-.57-11.83a3.5,3.5,0,0,1-.07-.54.64.64,0,0,1,.41-.7,17.82,17.82,0,0,1,3.79-.21,13,13,0,0,0,2.12-.25,12.82,12.82,0,0,1,2.05-.25c.29,0,.44.21.44.64,0,2.1-.09,5.27-.26,9.49s-.25,7.39-.25,9.5c0,.51.09.78.27.8,1.14-1,2.62-2.13,4.44-3.49a12.9,12.9,0,0,1,6.95-2.05q6.31,0,8.71,3.76,1.71,2.76,1.71,8.74c0,.69,0,1.76-.05,3.21s0,2.51,0,3.21q0,2.15.07,6.41T232.34,379.73Z"/><path class="cls-4" d="M269.24,364.54a17,17,0,0,1-4.6,12,15.87,15.87,0,0,1-23.36,0,17.86,17.86,0,0,1,0-23.93,16,16,0,0,1,23.33,0A16.71,16.71,0,0,1,269.24,364.54Zm-7.09.07a10.26,10.26,0,0,0-2.52-7,8.37,8.37,0,0,0-6.65-3.06,8.54,8.54,0,0,0-6.69,3,11,11,0,0,0,0,14,8.66,8.66,0,0,0,13.31,0A10.43,10.43,0,0,0,262.15,364.61Z"/></svg>
