<?xml version="1.0" standalone="no"?>
<!DOCTYPE svg PUBLIC "-//W3C//DTD SVG 20010904//EN"
 "http://www.w3.org/TR/2001/REC-SVG-20010904/DTD/svg10.dtd">
<svg version="1.0" xmlns="http://www.w3.org/2000/svg"
 width="1280.000000pt" height="1280.000000pt" viewBox="0 0 1280.000000 1280.000000"
 preserveAspectRatio="xMidYMid meet">

<g transform="translate(0.000000,1280.000000) scale(0.100000,-0.100000)"
fill="#000000" stroke="none">
<path d="M690 10900 l0 -1210 1205 0 c663 0 1208 0 1212 0 3 0 6 16 6 35 -1
19 -2 564 -2 1210 l-1 1175 -1210 0 -1210 0 0 -1210z m2080 -5 l0 -865 -865 0
-865 0 0 865 0 865 865 0 865 0 0 -865z"/>
<path d="M1390 10895 l0 -515 515 0 515 0 0 515 0 515 -515 0 -515 0 0 -515z"/>
<path d="M3460 11930 l0 -180 175 0 175 0 0 -175 0 -175 503 0 c276 0 586 0
690 0 l187 0 0 -165 0 -165 -520 0 -520 0 0 -345 0 -345 -165 0 -165 0 0 170
0 170 -180 0 -180 0 0 -524 0 -524 163 -1 c89 0 170 2 180 5 15 5 17 22 17
175 l0 169 165 0 165 0 2 -172 3 -173 173 0 172 0 0 -167 0 -168 -345 0 -345
0 0 -175 0 -175 -170 0 -170 0 0 175 0 175 -1215 0 -1215 0 0 -175 0 -175
-175 0 -175 0 0 -695 0 -695 180 0 180 0 0 520 0 520 168 -2 167 -3 3 -172 2
-173 175 0 175 0 0 345 0 345 685 0 685 0 1 -137 c1 -76 2 -150 3 -165 l3 -28
-174 0 -173 0 0 -180 0 -180 345 0 345 0 0 -165 0 -165 -515 0 -516 0 1 168
c0 92 1 247 0 345 l0 177 -175 0 -175 0 0 -350 0 -350 170 0 170 0 0 -170 0
-170 -170 0 -170 0 0 -350 0 -350 170 0 170 0 0 -170 0 -170 -340 0 -340 0 0
175 0 175 -345 0 -345 0 0 170 0 170 -180 0 -180 0 0 -175 0 -175 175 0 175 0
0 -170 0 -170 -175 0 -175 0 0 -175 0 -175 180 0 180 0 0 170 0 170 340 0 340
0 0 -165 0 -165 -170 0 -170 0 -1 -335 c-1 -184 -2 -341 -3 -347 -1 -10 -43
-14 -169 -16 l-167 -2 0 175 0 175 -180 0 -180 0 2 -177 3 -178 172 -3 173 -2
0 -165 0 -165 -175 0 -175 0 0 -870 0 -870 180 0 180 0 0 865 0 865 167 -2
168 -3 3 -692 2 -693 170 0 170 0 0 -170 0 -170 180 0 180 0 0 170 0 170 170
0 170 0 2 172 3 173 334 3 c194 1 337 -2 340 -7 3 -5 5 -81 3 -170 l-3 -161
-169 0 -170 0 0 -175 0 -175 345 0 345 0 0 -1210 0 -1210 173 -2 172 -3 3
-172 2 -173 175 0 175 0 2 173 3 172 173 3 172 2 0 175 0 175 -175 0 -175 0 2
168 3 167 173 3 172 2 0 170 0 170 170 0 170 0 2 172 3 173 343 3 342 2 -2
-167 -3 -168 -172 -3 -173 -2 0 -170 0 -170 -175 0 -175 0 0 -350 0 -350 180
0 180 0 0 170 0 170 170 0 170 0 0 -345 0 -345 350 0 350 0 0 345 0 345 340 0
340 0 0 -345 0 -345 525 0 525 0 0 175 0 175 165 0 165 0 0 -175 0 -175 700 0
700 0 0 345 0 345 340 0 340 0 0 -165 0 -165 -172 -2 -173 -3 -3 -177 -2 -178
180 0 180 0 2 173 3 172 510 0 510 0 3 -172 2 -173 175 0 175 0 0 180 0 180
-170 0 -170 0 0 170 0 170 -520 0 -520 0 0 170 0 170 345 0 345 0 0 345 0 345
170 0 170 0 0 -175 0 -175 170 0 170 0 0 -170 0 -170 180 0 180 0 0 175 0 175
-172 2 -173 3 0 165 0 165 173 3 172 2 0 180 0 180 -175 0 -175 0 0 165 0 165
175 0 175 0 0 180 0 180 -180 0 -180 0 0 -175 0 -175 -165 0 -165 0 0 175 0
175 -180 0 -180 0 0 -345 0 -345 -165 0 -165 0 0 510 0 510 343 2 342 3 3 173
2 172 165 0 165 0 2 -172 3 -173 178 -3 177 -2 0 180 0 180 -175 0 -175 0 2
168 3 167 173 3 172 2 0 175 0 175 -176 0 -175 0 1 173 c1 94 1 250 1 345 l-1
172 -170 0 -170 0 -2 348 -3 347 -342 3 -343 2 0 165 0 165 345 0 345 0 0 175
0 175 170 0 170 0 0 170 0 170 175 0 175 0 0 525 0 525 -175 0 -175 0 2 168 3
167 173 3 172 2 0 350 0 350 -180 0 -180 0 0 -345 0 -345 -165 0 -165 0 0 170
0 170 -345 0 -345 0 0 175 0 175 -355 0 -355 0 0 -175 0 -175 -170 0 -170 0 0
-175 0 -175 173 -1 c94 0 250 0 345 1 l172 1 0 -340 0 -341 -170 0 -170 0 0
170 0 170 -520 0 -520 0 0 -350 0 -350 345 0 345 0 0 -170 0 -170 -515 0 -515
0 0 175 0 175 -175 0 -175 0 2 168 3 167 170 2 170 2 3 175 2 176 -175 0 -175
0 0 340 0 340 170 0 170 0 0 -170 0 -170 180 0 180 0 0 175 0 175 -175 0 -175
0 0 175 0 175 -175 0 -175 0 0 165 0 165 173 2 172 3 3 353 2 352 -175 0 -175
0 0 165 0 165 175 0 175 0 0 175 0 175 345 0 345 0 0 175 0 175 -342 2 -343 3
-3 168 -2 167 175 0 175 0 -2 178 -3 177 -350 0 -350 0 0 -350 0 -350 173 -3
172 -2 0 -165 0 -165 -520 0 -520 0 0 -180 0 -180 175 0 175 0 0 -165 0 -165
-175 0 -175 0 2 -352 3 -353 170 -2 170 -2 3 -165 2 -166 -175 0 -175 0 0
-175 0 -175 -340 0 -340 0 0 175 0 175 -345 0 -345 0 2 167 3 166 167 -2 167
-2 3 178 c2 98 2 258 0 356 l-3 177 -174 0 -175 0 0 -344 0 -345 -27 -3 c-16
-2 -92 -2 -170 0 l-143 3 0 170 0 169 -170 0 -170 0 0 340 0 340 170 0 170 0
0 350 0 350 -342 2 -343 3 -3 168 -2 167 175 0 175 0 -2 178 -3 177 -522 3
-523 2 0 -175 0 -175 -340 0 -340 0 -2 173 -3 172 -177 3 -178 2 0 -180z
m1730 -1385 l0 -165 -172 -2 -173 -3 -3 -345 -2 -345 -165 3 -165 3 0 509 0
510 340 0 340 0 0 -165z m350 -690 l0 -164 -166 -3 c-91 -2 -168 -1 -170 1 -2
2 -4 78 -4 168 l0 163 170 0 170 0 0 -165z m2760 0 l0 -165 -165 0 -165 0 0
165 0 165 165 0 165 0 0 -165z m-3112 -349 l2 -166 -170 0 -170 0 0 164 c0
102 4 166 10 168 6 2 81 2 168 2 l157 -2 3 -166z m692 -3 l0 -173 175 0 175 0
0 -175 0 -175 345 0 345 0 0 -345 0 -345 175 0 175 0 0 -165 0 -165 -175 0
-175 0 0 -175 0 -175 -340 0 -340 0 -2 173 -3 172 -172 3 -173 2 0 165 0 165
345 0 345 0 0 180 0 180 -345 0 -345 0 0 170 0 170 -170 0 -170 0 0 343 0 342
165 0 165 0 0 -172z m2420 -343 l0 -170 -165 0 -165 0 0 170 0 170 165 0 165
0 0 -170z m-4150 -350 l0 -170 175 0 175 0 0 -170 0 -170 -515 0 -515 0 2 168
3 167 173 3 172 2 0 170 0 170 165 0 165 0 0 -170z m690 5 l0 -165 -165 0
-165 0 0 165 0 165 165 0 165 0 0 -165z m5890 0 l0 -165 -170 0 -170 0 0 165
0 165 170 0 170 0 0 -165z m-5540 -350 l0 -175 175 0 175 0 0 -340 0 -340
-515 0 -515 0 0 340 0 340 170 0 170 0 0 168 c0 93 3 172 7 175 3 4 80 7 170
7 l163 0 0 -175z m2770 5 l0 -170 -340 0 -340 0 0 170 0 170 340 0 340 0 0
-170z m3110 0 l0 -170 -165 0 -165 0 0 170 0 170 165 0 165 0 0 -170z m690
-345 l0 -165 -165 0 -165 0 0 165 0 165 165 0 165 0 0 -165z m-3802 -347 l2
-168 -170 0 -170 0 0 164 c0 122 3 166 13 170 6 2 82 4 167 3 l155 -2 3 -167z
m2072 2 l0 -170 -165 0 -165 0 0 163 c0 90 3 167 7 170 3 4 78 7 165 7 l158 0
0 -170z m1388 -178 l2 -342 -167 2 -168 3 -3 330 c-1 181 0 336 3 343 3 10 42
12 167 10 l163 -3 3 -343z m-8307 -6 c2 -2 3 -79 1 -170 l-3 -166 -337 2 -337
3 -3 155 c-1 85 0 160 2 167 4 10 76 13 339 13 184 0 336 -2 338 -4z m1389
-166 l0 -170 -175 0 -175 0 0 -170 0 -170 -340 0 -340 0 0 340 0 340 515 0
515 0 0 -170z m1380 0 l0 -170 -165 0 -165 0 0 170 0 170 165 0 165 0 0 -170z
m1730 0 l0 -170 -170 0 -170 0 0 -170 0 -170 -140 0 -140 0 -30 33 -29 32 -1
308 0 307 340 0 340 0 0 -170z m690 0 l0 -170 -165 0 -165 0 0 170 0 170 165
0 165 0 0 -170z m2425 0 l0 -165 -172 -3 -173 -2 0 -345 0 -345 -170 0 -169 0
0 509 c0 279 3 511 6 515 4 3 158 5 342 4 l336 -3 0 -165z m-5185 -350 l0
-170 100 0 c96 0 100 1 90 19 -16 30 -11 102 9 147 21 46 82 100 123 109 23 5
28 12 28 36 l0 29 341 0 340 0 -3 -42 c-2 -30 2 -48 13 -58 9 -8 23 -29 32
-46 12 -23 35 -40 81 -62 217 -102 362 -301 395 -545 9 -63 8 -96 -5 -170 -25
-149 -27 -186 -14 -243 13 -51 12 -55 -9 -78 -19 -20 -21 -30 -15 -79 l7 -57
283 0 284 0 0 345 0 345 340 0 340 0 0 -170 0 -170 175 0 175 0 0 -170 0 -170
-175 0 -175 0 2 -177 3 -178 173 -3 172 -2 0 -165 0 -165 -520 0 -520 0 0
-180 0 -180 525 0 525 0 0 175 0 175 168 -2 167 -3 3 -517 2 -518 170 0 170 0
0 -170 0 -170 -170 0 -170 0 0 -170 0 -170 -170 0 -170 0 0 520 0 520 -177 -2
-178 -3 -3 -172 -2 -173 -165 0 -165 0 -2 173 -3 172 -177 3 -178 2 0 -180 0
-180 175 0 175 0 0 -170 0 -170 -175 0 -175 0 0 -170 0 -170 -165 0 -165 0 0
345 0 345 -175 0 -175 0 2 168 3 167 173 3 172 2 0 520 0 520 -175 0 -175 0 0
105 c0 58 -2 105 -5 105 -3 0 -14 -9 -25 -20 -35 -35 -86 -21 -159 46 -38 34
-38 34 -77 19 -22 -9 -51 -23 -67 -31 -15 -8 -35 -14 -45 -13 -9 2 -28 -3 -41
-10 -13 -7 -34 -11 -47 -8 -14 2 -24 -1 -24 -8 0 -6 -9 -21 -20 -33 -11 -12
-20 -23 -20 -26 0 -4 98 2 143 9 l27 5 0 -70 0 -70 -165 0 -165 0 0 70 0 70
43 -6 c35 -5 40 -4 30 7 -7 7 -13 22 -13 33 0 18 -2 18 -26 -5 -22 -21 -33
-23 -92 -21 -60 2 -70 6 -94 32 -21 23 -28 40 -28 73 0 40 -3 44 -67 92 -70
52 -144 135 -178 202 -11 21 -28 49 -37 63 -18 25 -28 64 -49 190 -21 118 2
262 61 388 l30 63 -22 30 c-12 16 -25 29 -30 29 -12 0 -86 -161 -99 -217 l-12
-53 -59 0 -58 0 0 -175 0 -174 61 -3 61 -3 37 -85 c39 -91 85 -165 134 -217
l31 -33 -162 0 -162 0 -2 -172 -3 -173 -167 -3 -168 -2 0 175 0 175 -345 0
-345 0 0 340 0 340 165 0 165 0 0 -170 0 -170 180 0 180 0 0 175 0 175 -175 0
-174 0 0 340 0 340 344 0 345 0 0 -170z m2420 5 l0 -165 -170 0 -170 0 0 165
0 165 170 0 170 0 0 -165z m690 -175 l0 -340 -170 0 -170 0 0 340 0 340 170 0
170 0 0 -340z m2420 175 l0 -165 -165 0 -165 0 0 165 0 165 165 0 165 0 0
-165z m-7610 -345 l0 -170 -340 0 -340 0 0 170 0 170 340 0 340 0 0 -170z
m1040 0 l0 -170 -170 0 -170 0 0 163 c0 90 3 167 7 170 3 4 80 7 170 7 l163 0
0 -170z m4840 0 l0 -170 -165 0 -165 0 0 170 0 170 165 0 165 0 0 -170z m690
-345 l0 -165 -165 0 -165 0 0 165 0 165 165 0 165 0 0 -165z m-7952 -347 l2
-168 -170 0 -170 0 0 163 c0 90 3 167 7 171 4 3 79 5 167 4 l161 -3 3 -167z
m1730 0 l2 -168 -515 0 -515 0 0 163 c0 90 3 167 6 170 4 4 235 6 513 4 l506
-2 3 -167z m5532 -173 l0 -345 -340 0 -340 0 0 170 0 170 175 0 175 0 0 175 0
175 165 0 165 0 0 -345z m1388 173 l2 -168 -170 0 -170 0 0 163 c0 90 3 167 7
171 4 3 79 5 167 4 l161 -3 3 -167z m342 -348 l0 -170 -165 0 -165 0 0 170 0
170 165 0 165 0 0 -170z m-8990 -345 l0 -165 -340 0 -340 0 0 165 0 165 340 0
340 0 0 -165z m1032 0 l3 -165 -167 0 -168 0 0 165 0 165 165 0 164 0 3 -165z
m698 0 l0 -165 -170 0 -170 0 0 165 0 165 170 0 170 0 0 -165z m1380 0 l0
-165 -340 0 -340 0 0 165 0 165 340 0 340 0 0 -165z m1040 0 l0 -165 -170 0
-170 0 0 165 0 165 170 0 170 0 0 -165z m690 -345 l0 -510 -170 0 -169 0 0
510 0 510 169 0 170 0 0 -510z m3110 170 l0 -340 -165 0 -165 0 0 340 0 340
165 0 165 0 0 -340z m-7610 -170 l0 -170 -165 0 -165 0 0 170 0 170 165 0 165
0 0 -170z m1730 -350 l0 -520 520 0 520 0 0 -685 0 -685 -515 0 -515 0 0 165
0 165 345 0 345 0 0 180 0 180 -690 0 -690 0 0 165 0 165 173 2 172 3 0 350 0
350 -172 3 -173 2 0 165 0 165 175 0 175 0 0 175 0 175 165 0 165 0 0 -520z
m1388 348 l2 -168 -170 0 -170 0 0 170 0 170 168 -2 167 -3 3 -167z m5882 -3
l0 -175 170 0 170 0 0 -165 0 -165 -685 0 -685 0 0 165 0 165 345 0 345 0 0
168 c0 93 3 172 7 175 3 4 80 7 170 7 l163 0 0 -175z m-8309 -312 c0 -76 2
-150 3 -165 l2 -28 -168 0 -168 0 0 165 0 165 165 0 165 0 1 -137z m2079 -28
l0 -165 -170 0 -170 0 0 158 c0 87 3 162 7 165 3 4 80 7 170 7 l163 0 0 -165z
m1040 0 l0 -165 -175 0 -175 0 2 -352 3 -353 173 -3 172 -2 0 -165 0 -165
-340 0 -340 0 0 345 0 345 -175 0 -175 0 2 168 3 167 173 3 172 2 0 170 0 170
340 0 340 0 0 -165z m3460 -5 l0 -170 173 -1 c94 0 250 0 345 1 l172 1 0 -170
0 -171 -515 0 -515 0 0 340 0 340 170 0 170 0 0 -170z m-7270 -340 l0 -170
-165 0 -165 0 0 170 0 170 165 0 165 0 0 -170z m-340 -350 l0 -170 -167 2
-168 3 -3 168 -2 167 170 0 170 0 0 -170z m4840 0 l0 -170 -167 2 -168 3 -3
155 c-1 85 0 160 2 167 4 10 45 13 171 13 l165 0 0 -170z m1380 -345 l0 -165
-165 0 -165 0 0 165 0 165 165 0 165 0 0 -165z m-1730 -515 l0 -340 -165 0
-165 0 0 340 0 340 165 0 165 0 0 -340z m698 168 l2 -168 -170 0 -170 0 0 163
c0 90 3 167 7 171 4 3 79 5 167 4 l161 -3 3 -167z m1382 -168 l0 -340 -170 0
-170 0 0 334 c0 183 3 336 7 340 3 3 80 6 170 6 l163 0 0 -340z m1730 -175 l0
-515 -515 0 -515 0 0 508 c0 280 3 512 7 515 3 4 235 7 515 7 l508 0 0 -515z
m-4500 0 l0 -165 -165 0 -165 0 0 165 0 165 165 0 165 0 0 -165z m2080 -350
l0 -515 -175 0 -175 0 0 -170 0 -170 -165 0 -165 0 0 170 0 170 -172 2 -173 3
-3 173 -2 172 -175 0 -175 0 2 168 3 167 175 2 c96 1 253 2 348 2 l172 1 0
170 0 170 340 0 340 0 0 -515z m-1730 5 l0 -170 -170 0 -170 0 0 163 c0 90 3
167 7 170 3 4 80 7 170 7 l163 0 0 -170z m-1730 -350 l0 -170 -175 0 -175 0 0
-170 0 -170 -165 0 -165 0 0 340 0 340 340 0 340 0 0 -170z m4498 3 l-3 -168
-340 0 -340 0 -3 155 c-1 85 0 160 2 167 4 10 77 13 346 13 l340 0 -2 -167z
m-2078 -348 l0 -165 -170 0 -170 0 0 165 0 165 170 0 170 0 0 -165z m3460 0
l0 -165 -340 0 -340 0 0 165 0 165 340 0 340 0 0 -165z m-2420 -345 l0 -170
-170 0 -170 0 0 163 c0 90 3 167 7 170 3 4 80 7 170 7 l163 0 0 -170z m690 0
l0 -170 -167 2 -168 3 -3 155 c-1 85 0 160 2 167 4 10 45 13 171 13 l165 0 0
-170z m-4500 -345 l0 -165 -165 0 -165 0 0 165 0 165 165 0 165 0 0 -165z
m5190 0 l0 -165 -340 0 -340 0 0 165 0 165 340 0 340 0 0 -165z"/>
<path d="M6225 7165 c-27 -7 -72 -22 -98 -32 l-48 -19 25 -27 c14 -15 33 -27
43 -27 39 0 92 27 144 72 l54 48 -35 -1 c-19 0 -57 -6 -85 -14z"/>
<path d="M6402 7172 c-24 -8 -142 -101 -142 -113 0 -25 27 -14 75 29 29 27 67
52 83 55 43 9 94 -9 128 -44 26 -27 29 -37 29 -99 0 -62 -3 -72 -32 -108 -27
-33 -30 -42 -19 -51 11 -9 20 -2 45 36 55 83 60 134 20 214 -30 60 -122 100
-187 81z"/>
<path d="M5829 7141 c-71 -44 -99 -143 -65 -224 29 -70 240 -297 259 -278 8 8
-17 39 -89 113 -129 133 -158 180 -152 252 5 60 28 97 76 120 63 31 98 21 175
-52 38 -34 51 -42 60 -32 9 9 0 22 -38 56 -94 83 -149 94 -226 45z"/>
<path d="M6440 7110 c8 -5 24 -9 35 -9 l20 0 -20 9 c-11 5 -27 9 -35 9 -13 1
-13 0 0 -9z"/>
<path d="M5839 7082 c-25 -23 -32 -38 -36 -78 -4 -44 -2 -53 31 -96 l37 -48
73 64 c40 34 81 68 92 74 18 10 18 12 -10 41 l-28 29 -48 -34 c-26 -19 -50
-34 -54 -34 -3 0 -6 25 -6 55 0 30 -4 55 -10 55 -5 0 -24 -13 -41 -28z"/>
<path d="M6106 7025 c-11 -9 -16 -20 -12 -30 7 -19 25 -16 40 8 15 24 -4 39
-28 22z"/>
<path d="M6215 7030 c-8 -14 13 -40 32 -40 20 0 12 44 -9 48 -9 2 -19 -2 -23
-8z"/>
<path d="M6350 6704 c0 -9 -9 -18 -20 -21 -11 -3 -20 -12 -20 -20 0 -8 9 -17
20 -20 11 -3 20 -14 20 -24 0 -11 7 -19 15 -19 8 0 15 9 15 19 0 12 9 21 25
25 30 8 34 36 4 36 -12 0 -23 8 -26 20 -6 24 -33 27 -33 4z"/>
<path d="M6663 6654 c3 -3 -6 -16 -19 -29 -13 -13 -26 -34 -29 -48 -12 -44
-141 -97 -240 -97 -55 0 -146 23 -182 46 -22 14 -23 13 -23 -15 0 -32 -9 -28
130 -55 91 -18 176 -8 263 31 l57 26 25 -27 c46 -50 135 -23 150 45 8 36 -8
80 -35 97 -19 12 -106 35 -97 26z m83 -69 c15 -23 15 -27 0 -50 -9 -14 -20
-25 -25 -25 -5 0 -16 -3 -24 -6 -19 -7 -57 30 -57 55 0 51 77 70 106 26z"/>
<path d="M6065 6579 c31 -31 41 -36 43 -24 5 22 -36 65 -62 65 -17 0 -14 -6
19 -41z"/>
<path d="M5790 6351 c0 -16 26 -19 143 -18 89 2 118 -1 122 -11 7 -19 6 -137
-1 -145 -16 -15 -44 15 -44 47 0 67 -65 110 -103 68 -22 -24 -23 -72 -2 -72 9
0 15 9 15 25 0 30 24 43 45 25 19 -16 19 -60 -1 -88 -11 -16 -25 -22 -53 -22
-51 0 -71 24 -71 83 0 35 -4 47 -15 47 -11 0 -15 -13 -15 -54 0 -49 3 -57 32
-81 27 -23 39 -26 76 -22 24 3 51 12 60 20 14 15 18 15 44 -1 15 -9 28 -22 28
-29 0 -7 9 -13 20 -13 19 0 20 7 20 110 l0 110 25 0 25 0 0 -100 c0 -82 3
-100 15 -100 12 0 15 18 15 100 l0 100 25 0 c18 0 25 -5 25 -20 0 -11 8 -23
18 -27 40 -14 44 -25 12 -44 -54 -33 -35 -99 29 -99 28 0 27 18 -1 22 -17 2
-23 10 -23 28 0 21 5 26 32 28 49 5 73 -13 73 -53 0 -24 5 -35 15 -35 12 0 15
18 15 99 0 97 0 99 25 103 22 5 25 1 30 -36 2 -23 4 -63 4 -91 -2 -70 -1 -75
16 -75 11 0 15 20 17 102 3 102 3 103 28 103 19 0 24 -4 22 -20 -17 -110 -16
-123 18 -157 38 -38 57 -22 20 17 -19 20 -22 32 -18 74 6 58 21 81 54 81 23 0
24 -3 24 -75 0 -88 7 -92 67 -41 49 42 63 34 63 -36 0 -36 4 -48 15 -48 23 0
21 102 -3 123 -25 23 -55 21 -77 -3 -29 -32 -36 -24 -33 33 l3 52 125 -2 c69
-1 137 -2 153 -3 42 0 32 -16 -18 -29 -56 -14 -85 -42 -85 -80 0 -26 7 -32 66
-60 36 -17 72 -31 80 -31 11 0 14 21 14 99 0 79 3 100 15 105 60 23 -19 26
-605 26 -357 0 -620 -4 -620 -9z m568 -64 c2 -34 -1 -47 -10 -47 -18 0 -101
77 -94 88 3 5 27 8 53 7 l48 -1 3 -47z m612 -66 l0 -60 -50 22 c-62 27 -69 60
-17 82 60 26 67 22 67 -44z"/>
<path d="M6864 6129 c-10 -17 13 -36 27 -22 12 12 4 33 -11 33 -5 0 -12 -5
-16 -11z"/>
<path d="M6544 6075 c-5 -13 -44 -15 -261 -15 -167 0 -252 -3 -248 -10 3 -5
15 -10 27 -10 13 0 18 -5 15 -14 -3 -8 3 -26 14 -39 10 -14 19 -30 19 -36 0
-14 -27 -14 -35 -1 -9 14 -25 12 -25 -2 0 -18 87 -71 105 -64 8 3 18 20 23 37
4 18 13 34 20 37 16 5 16 -90 0 -106 -9 -9 -7 -13 5 -18 12 -4 17 -18 17 -45
0 -39 0 -39 -40 -39 l-40 0 0 40 c0 29 4 40 15 40 8 0 15 5 15 11 0 6 -10 9
-22 7 -20 -3 -23 -10 -26 -49 -4 -57 11 -71 70 -67 l43 3 5 45 c5 41 7 45 29
42 14 -1 39 -11 55 -21 26 -15 31 -23 30 -55 -1 -40 19 -46 24 -7 6 36 -24 68
-80 89 l-53 20 -3 96 -3 96 39 0 c25 0 45 -7 55 -18 27 -30 21 -45 -14 -37
-61 14 -15 -28 79 -71 2 -1 -9 -14 -23 -29 -26 -25 -26 -27 -10 -45 9 -10 29
-21 43 -25 15 -4 35 -13 44 -22 32 -28 37 -7 31 116 -6 112 -5 119 14 130 37
19 48 -10 48 -127 0 -75 4 -107 13 -109 15 -6 15 -5 12 130 l-2 107 40 0 c25
0 45 -6 55 -18 27 -30 21 -45 -13 -37 -43 9 -38 -10 10 -40 62 -39 90 -31 90
26 0 33 28 22 32 -13 5 -49 32 -43 38 7 5 36 8 40 34 40 35 0 50 -30 32 -66
-8 -18 -27 -28 -74 -39 -92 -24 -95 -31 -34 -90 29 -27 59 -50 69 -50 9 0 -5
14 -31 31 -62 41 -60 68 4 84 64 17 89 32 96 60 10 38 -4 73 -34 89 -27 15
-27 15 26 16 l52 0 0 -42 c0 -24 5 -62 10 -85 8 -32 6 -53 -4 -83 -11 -33 -11
-40 0 -40 25 0 39 75 26 140 -13 59 -4 110 18 110 5 0 10 5 10 10 0 6 -80 10
-220 10 -187 0 -222 2 -226 15 -4 8 -10 15 -15 15 -5 0 -12 -7 -15 -15z m-334
-65 c0 -22 -5 -29 -22 -32 -15 -2 -24 -13 -30 -35 -5 -19 -15 -33 -23 -33 -17
0 -20 16 -5 25 15 9 12 23 -12 47 -28 28 -14 51 38 58 50 7 54 5 54 -30z m240
20 c0 -5 -9 -10 -20 -10 -21 0 -24 -4 -34 -53 -4 -16 -11 -25 -17 -21 -6 3 -8
16 -5 29 4 14 0 28 -9 35 -26 22 -16 30 35 30 28 0 50 -4 50 -10z m330 1 c0
-5 -10 -11 -22 -13 -15 -2 -25 -13 -32 -35 -5 -18 -15 -33 -22 -33 -17 0 -18
12 -2 28 9 9 6 17 -12 37 l-23 25 56 0 c31 0 57 -4 57 -9z m60 5 c0 -11 -19
-15 -25 -6 -3 5 1 10 9 10 9 0 16 -2 16 -4z m-382 -70 c3 -16 -22 -45 -40 -46
-6 0 -2 25 8 58 5 18 28 10 32 -12z m0 -108 c-3 -38 -24 -46 -53 -23 -20 15
-20 15 4 35 35 30 53 26 49 -12z"/>
<path d="M6177 5813 c-11 -10 -8 -43 3 -43 6 0 10 11 10 25 0 26 -2 29 -13 18z"/>
<path d="M9690 2935 l0 -175 175 0 175 0 0 175 0 175 -175 0 -175 0 0 -175z"/>
<path d="M6230 11930 l0 -180 170 0 170 0 0 -345 0 -345 355 0 355 0 0 175 0
175 -172 2 -173 3 -3 168 -2 167 520 0 520 0 0 180 0 180 -870 0 -870 0 0
-180z"/>
<path d="M9690 10900 l0 -1210 25 0 c14 0 557 0 1208 0 l1182 0 3 1210 2 1210
-1210 0 -1210 0 0 -1210z m2070 -5 l0 -865 -865 0 -865 0 0 865 0 865 865 0
865 0 0 -865z"/>
<path d="M10380 10895 l0 -515 520 0 520 0 0 515 0 515 -520 0 -520 0 0 -515z"/>
<path d="M6920 10196 l0 -524 155 -1 c84 -1 165 1 180 5 l25 6 0 519 0 519
-180 0 -180 0 0 -524z"/>
<path d="M9000 10545 l0 -175 175 0 175 0 0 175 0 175 -175 0 -175 0 0 -175z"/>
<path d="M9000 9680 l0 -350 175 0 175 0 0 350 0 350 -175 0 -175 0 0 -350z"/>
<path d="M1390 7430 l0 -180 175 0 175 0 0 180 0 180 -175 0 -175 0 0 -180z"/>
<path d="M11760 6220 l0 -350 180 0 180 0 0 350 0 350 -180 0 -180 0 0 -350z"/>
<path d="M690 1900 l0 -1210 1210 2 1210 3 2 1208 3 1207 -1212 0 -1213 0 0
-1210z m2080 5 l0 -865 -865 0 -865 0 0 865 0 865 865 0 865 0 0 -865z"/>
<path d="M1390 1900 l0 -520 515 0 515 0 0 520 0 520 -515 0 -515 0 0 -520z"/>
</g>
</svg>
