<?xml version="1.0" standalone="no"?>
<!DOCTYPE svg PUBLIC "-//W3C//DTD SVG 20010904//EN"
 "http://www.w3.org/TR/2001/REC-SVG-20010904/DTD/svg10.dtd">
<svg version="1.0" xmlns="http://www.w3.org/2000/svg"
 width="555.000000pt" height="520.000000pt" viewBox="0 0 555.000000 520.000000"
 preserveAspectRatio="xMidYMid meet">

<g transform="translate(0.000000,520.000000) scale(0.100000,-0.100000)"
fill="#000000" stroke="none">
<path d="M73 5145 c-21 -15 -23 -24 -23 -114 0 -79 3 -101 17 -112 11 -10 57
-16 149 -19 114 -4 136 -8 161 -26 l28 -21 8 -1608 c7 -1525 6 -1609 -10
-1628 -37 -40 -74 -50 -206 -55 -121 -4 -129 -6 -144 -28 -19 -30 -15 -196 5
-216 19 -19 1405 -24 1442 -5 24 12 25 17 28 118 2 86 0 108 -13 119 -10 9
-65 15 -158 20 -146 7 -184 17 -218 56 -14 17 -15 87 -11 691 l4 673 465 0
464 0 67 -43 c179 -116 689 -752 1036 -1290 l56 -88 -53 -67 c-29 -37 -114
-146 -187 -242 -372 -486 -634 -755 -851 -873 -117 -64 -186 -79 -419 -92
-119 -7 -160 -13 -177 -27 -9 -7 -13 -41 -13 -104 0 -85 2 -94 22 -108 20 -14
110 -16 778 -16 668 0 758 2 778 16 20 14 22 23 22 109 0 72 -4 97 -16 109
-18 19 -18 19 -206 20 -118 1 -150 4 -163 16 -14 14 -12 20 13 55 16 22 37 60
46 85 25 64 119 229 195 340 150 221 405 535 419 517 12 -14 153 -245 225
-367 104 -177 243 -377 306 -444 112 -117 228 -188 391 -241 76 -25 103 -29
255 -33 149 -3 181 -1 260 17 110 26 252 95 321 155 86 75 350 536 337 587 -3
11 -17 25 -32 30 -34 14 -218 0 -235 -16 -7 -7 -25 -48 -41 -92 -66 -187 -180
-259 -398 -251 -92 3 -109 6 -169 36 -162 80 -341 296 -710 857 l-157 239 37
46 c20 25 95 117 167 205 71 87 141 173 155 191 14 18 75 92 135 165 61 74
129 159 152 190 150 203 356 301 601 284 67 -5 97 -3 107 5 11 9 15 37 15 111
0 87 -2 99 -19 109 -13 6 -233 10 -645 10 -554 0 -626 -2 -640 -16 -43 -42 9
-160 88 -201 17 -9 74 -19 129 -23 54 -4 101 -10 104 -14 15 -14 -18 -67 -162
-261 -167 -225 -386 -504 -396 -505 -3 0 -36 46 -72 103 -272 423 -593 742
-897 893 -65 33 -119 61 -119 64 0 3 16 13 37 22 75 35 199 125 273 198 161
160 272 380 309 612 18 112 8 360 -18 460 -48 180 -105 287 -214 403 -151 162
-363 262 -643 304 -43 6 -470 12 -1110 16 -952 6 -1042 5 -1062 -10z m2153
-534 c239 -94 338 -256 320 -520 -18 -268 -92 -409 -256 -489 l-65 -32 -425
-11 c-234 -7 -482 -8 -552 -4 l-128 7 0 539 0 539 518 0 517 -1 71 -28z"/>
</g>
</svg>
